<svg width="38" height="38" viewBox="0 0 38 38" fill="none" xmlns="http://www.w3.org/2000/svg">
<path d="M12.7101 30.4219C12.7101 30.5781 12.5339 30.7031 12.3117 30.7031C12.0589 30.7266 11.8827 30.6016 11.8827 30.4219C11.8827 30.2656 12.0589 30.1406 12.281 30.1406C12.5109 30.1172 12.7101 30.2422 12.7101 30.4219ZM10.3274 30.0703C10.2738 30.2266 10.427 30.4062 10.6569 30.4531C10.856 30.5312 11.0859 30.4531 11.1319 30.2969C11.1778 30.1406 11.0323 29.9609 10.8024 29.8906C10.6032 29.8359 10.381 29.9141 10.3274 30.0703ZM13.7137 29.9375C13.4915 29.9922 13.3383 30.1406 13.3613 30.3203C13.3843 30.4766 13.5835 30.5781 13.8133 30.5234C14.0355 30.4688 14.1887 30.3203 14.1657 30.1641C14.1427 30.0156 13.9359 29.9141 13.7137 29.9375ZM18.7548 0C8.12863 0 0 8.22656 0 19.0625C0 27.7266 5.34758 35.1406 12.9859 37.75C13.9665 37.9297 14.3113 37.3125 14.3113 36.8047C14.3113 36.3203 14.2883 33.6484 14.2883 32.0078C14.2883 32.0078 8.9254 33.1797 7.79919 29.6797C7.79919 29.6797 6.92581 27.4062 5.66935 26.8203C5.66935 26.8203 3.91492 25.5938 5.79194 25.6172C5.79194 25.6172 7.6996 25.7734 8.74919 27.6328C10.427 30.6484 13.2387 29.7812 14.3343 29.2656C14.5105 28.0156 15.0085 27.1484 15.5601 26.6328C11.2774 26.1484 6.95645 25.5156 6.95645 18C6.95645 15.8516 7.53871 14.7734 8.76452 13.3984C8.56532 12.8906 7.91411 10.7969 8.96371 8.09375C10.5649 7.58594 14.25 10.2031 14.25 10.2031C15.7823 9.76563 17.4294 9.53906 19.0613 9.53906C20.6931 9.53906 22.3403 9.76563 23.8726 10.2031C23.8726 10.2031 27.5577 7.57812 29.1589 8.09375C30.2085 10.8047 29.5573 12.8906 29.3581 13.3984C30.5839 14.7812 31.3347 15.8594 31.3347 18C31.3347 25.5391 26.8222 26.1406 22.5395 26.6328C23.2444 27.25 23.8419 28.4219 23.8419 30.2578C23.8419 32.8906 23.819 36.1484 23.819 36.7891C23.819 37.2969 24.1714 37.9141 25.1444 37.7344C32.8056 35.1406 38 27.7266 38 19.0625C38 8.22656 29.381 0 18.7548 0ZM7.44677 26.9453C7.34718 27.0234 7.37016 27.2031 7.5004 27.3516C7.62298 27.4766 7.79919 27.5312 7.89879 27.4297C7.99839 27.3516 7.9754 27.1719 7.84516 27.0234C7.72258 26.8984 7.54637 26.8438 7.44677 26.9453ZM6.61936 26.3125C6.56573 26.4141 6.64234 26.5391 6.79556 26.6172C6.91815 26.6953 7.07137 26.6719 7.125 26.5625C7.17863 26.4609 7.10202 26.3359 6.94879 26.2578C6.79556 26.2109 6.67298 26.2344 6.61936 26.3125ZM9.10161 29.0938C8.97903 29.1953 9.025 29.4297 9.20121 29.5781C9.37742 29.7578 9.5996 29.7812 9.69919 29.6562C9.79879 29.5547 9.75282 29.3203 9.5996 29.1719C9.43105 28.9922 9.20121 28.9688 9.10161 29.0938ZM8.22823 27.9453C8.10565 28.0234 8.10565 28.2266 8.22823 28.4062C8.35081 28.5859 8.55766 28.6641 8.65726 28.5859C8.77984 28.4844 8.77984 28.2812 8.65726 28.1016C8.55 27.9219 8.35081 27.8438 8.22823 27.9453Z" fill="#222222"/>
</svg>
