<svg width="37" height="36" viewBox="0 0 37 36" fill="none" xmlns="http://www.w3.org/2000/svg">
<path d="M18.5078 8.5293C13.5391 8.5293 9.53125 12.5371 9.53125 17.5059C9.53125 22.4746 13.5391 26.4824 18.5078 26.4824C23.4766 26.4824 27.4844 22.4746 27.4844 17.5059C27.4844 12.5371 23.4766 8.5293 18.5078 8.5293ZM18.5078 23.3418C15.2969 23.3418 12.6719 20.7246 12.6719 17.5059C12.6719 14.2871 15.2891 11.6699 18.5078 11.6699C21.7266 11.6699 24.3438 14.2871 24.3438 17.5059C24.3438 20.7246 21.7188 23.3418 18.5078 23.3418ZM29.9453 8.16211C29.9453 9.32617 29.0078 10.2559 27.8516 10.2559C26.6875 10.2559 25.7578 9.31836 25.7578 8.16211C25.7578 7.00586 26.6953 6.06836 27.8516 6.06836C29.0078 6.06836 29.9453 7.00586 29.9453 8.16211ZM35.8906 10.2871C35.7578 7.48242 35.1172 4.99805 33.0625 2.95117C31.0156 0.904297 28.5313 0.263672 25.7266 0.123047C22.8359 -0.0410156 14.1719 -0.0410156 11.2812 0.123047C8.48438 0.255859 6 0.896484 3.94531 2.94336C1.89063 4.99023 1.25781 7.47461 1.11719 10.2793C0.953125 13.1699 0.953125 21.834 1.11719 24.7246C1.25 27.5293 1.89063 30.0137 3.94531 32.0605C6 34.1074 8.47656 34.748 11.2812 34.8887C14.1719 35.0527 22.8359 35.0527 25.7266 34.8887C28.5313 34.7559 31.0156 34.1152 33.0625 32.0605C35.1094 30.0137 35.75 27.5293 35.8906 24.7246C36.0547 21.834 36.0547 13.1777 35.8906 10.2871ZM32.1562 27.8262C31.5469 29.3574 30.3672 30.5371 28.8281 31.1543C26.5234 32.0684 21.0547 31.8574 18.5078 31.8574C15.9609 31.8574 10.4844 32.0605 8.1875 31.1543C6.65625 30.5449 5.47656 29.3652 4.85938 27.8262C3.94531 25.5215 4.15625 20.0527 4.15625 17.5059C4.15625 14.959 3.95313 9.48242 4.85938 7.18555C5.46875 5.6543 6.64844 4.47461 8.1875 3.85742C10.4922 2.94336 15.9609 3.1543 18.5078 3.1543C21.0547 3.1543 26.5313 2.95117 28.8281 3.85742C30.3594 4.4668 31.5391 5.64648 32.1562 7.18555C33.0703 9.49023 32.8594 14.959 32.8594 17.5059C32.8594 20.0527 33.0703 25.5293 32.1562 27.8262Z" fill="#222222"/>
</svg>
