<svg width="35" height="34" viewBox="0 0 35 34" fill="none" xmlns="http://www.w3.org/2000/svg">
<path d="M32.5 0H2.49219C1.11719 0 0 1.10045 0 2.45134V31.5487C0 32.8996 1.11719 34 2.49219 34H32.5C33.875 34 35 32.8996 35 31.5487V2.45134C35 1.10045 33.875 0 32.5 0ZM10.5781 29.1429H5.39062V12.917H10.5859V29.1429H10.5781ZM7.98437 10.7009C6.32031 10.7009 4.97656 9.38795 4.97656 7.77902C4.97656 6.17009 6.32031 4.85714 7.98437 4.85714C9.64062 4.85714 10.9922 6.17009 10.9922 7.77902C10.9922 9.39554 9.64844 10.7009 7.98437 10.7009ZM30.0234 29.1429H24.8359V21.25C24.8359 19.3679 24.7969 16.9469 22.1406 16.9469C19.4375 16.9469 19.0234 18.996 19.0234 21.1134V29.1429H13.8359V12.917H18.8125V15.133H18.8828C19.5781 13.858 21.2734 12.5147 23.7969 12.5147C29.0469 12.5147 30.0234 15.8768 30.0234 20.2482V29.1429Z" fill="#222222"/>
</svg>
