<svg width="39" height="33" viewBox="0 0 39 33" fill="none" xmlns="http://www.w3.org/2000/svg">
<path d="M34.9911 8.09641C35.0158 8.45172 35.0158 8.80711 35.0158 9.16242C35.0158 19.9999 26.9734 32.4873 12.2741 32.4873C7.74554 32.4873 3.53872 31.142 0 28.8071C0.643424 28.8832 1.26202 28.9086 1.9302 28.9086C5.66681 28.9086 9.10658 27.6142 11.8534 25.4061C8.33945 25.3299 5.39464 22.9695 4.38003 19.7208C4.875 19.7969 5.36989 19.8477 5.88961 19.8477C6.60722 19.8477 7.32492 19.7461 7.99302 19.5685C4.3306 18.807 1.58369 15.5076 1.58369 11.5228V11.4213C2.64773 12.0305 3.88515 12.4112 5.1966 12.4619C3.04368 10.9898 1.6332 8.47711 1.6332 5.63445C1.6332 4.11164 2.02907 2.7157 2.722 1.49742C6.65666 6.47203 12.571 9.7207 19.2029 10.0761C19.0792 9.46695 19.005 8.8325 19.005 8.19797C19.005 3.68016 22.5684 0 26.998 0C29.2994 0 31.378 0.989844 32.8381 2.58883C34.6445 2.23352 36.3767 1.5482 37.911 0.609141C37.3171 2.51273 36.055 4.11172 34.3971 5.12687C36.0056 4.9493 37.5646 4.49234 38.9998 3.85789C37.9112 5.48219 36.5501 6.92883 34.9911 8.09641Z" fill="#222222"/>
</svg>
